<?xml version="1.0"?>
<svg xmlns="http://www.w3.org/2000/svg" height="512px" viewBox="0 0 64 64" width="512px"><path d="m62 43h-3v-25a5.006 5.006 0 0 0 -5-5h-44a5.006 5.006 0 0 0 -5 5v25h-3a1 1 0 0 0 -1 1v4a3 3 0 0 0 3 3h56a3 3 0 0 0 3-3v-4a1 1 0 0 0 -1-1zm-55-25a3 3 0 0 1 3-3h44a3 3 0 0 1 3 3v25h-50zm28.612 27-.333 1h-6.558l-.333-1zm25.388 3a1 1 0 0 1 -1 1h-56a1 1 0 0 1 -1-1v-3h23.28l.772 2.316a1 1 0 0 0 .948.684h8a1 1 0 0 0 .948-.684l.772-2.316h23.28z" fill="#733C73"/><path d="m32.65 21.241a1 1 0 0 0 -1.3 0l-9.057 8.052a1 1 0 1 0 1.414 1.414l.293-.293v6.586a1 1 0 0 0 1 1h14a1 1 0 0 0 1-1v-6.586l.293.293a1 1 0 0 0 1.414-1.414zm5.35 14.759h-12v-7.54l6-5.143 6 5.143z" fill="#733C73"/><path d="m56 39v-20a3 3 0 0 0 -3-3h-42a3 3 0 0 0 -3 3v20a3 3 0 0 0 3 3h42a3 3 0 0 0 3-3zm-46 0v-20a1 1 0 0 1 1-1h42a1 1 0 0 1 1 1v20a1 1 0 0 1 -1 1h-42a1 1 0 0 1 -1-1z" fill="#733C73"/><path d="m11 46h-6a1 1 0 0 0 0 2h6a1 1 0 0 0 0-2z" fill="#733C73"/><path d="m15 46h-1a1 1 0 0 0 0 2h1a1 1 0 0 0 0-2z" fill="#733C73"/><path d="m48 19h-5a1 1 0 0 0 0 2h5a1 1 0 0 0 0-2z" fill="#733C73"/><path d="m52 19h-1a1 1 0 0 0 0 2h1a1 1 0 0 0 0-2z" fill="#733C73"/></svg>
